<?xml version="1.0" encoding="UTF-8" standalone="no"?>
<svg
   xmlns:dc="http://purl.org/dc/elements/1.1/"
   xmlns:cc="http://creativecommons.org/ns#"
   xmlns:rdf="http://www.w3.org/1999/02/22-rdf-syntax-ns#"
   xmlns:svg="http://www.w3.org/2000/svg"
   xmlns="http://www.w3.org/2000/svg"
   width="368.98242mm"
   height="584.64252mm"
   viewBox="0 0 368.98242 584.64252"
   version="1.1"
   id="svg8">
  <defs
     id="defs2" />
  <metadata
     id="metadata5">
    <rdf:RDF>
      <cc:Work
         rdf:about="">
        <dc:format>image/svg+xml</dc:format>
        <dc:type
           rdf:resource="http://purl.org/dc/dcmitype/StillImage" />
        <dc:title></dc:title>
      </cc:Work>
    </rdf:RDF>
  </metadata>
  <g
     id="layer1"
     style="display:inline"
     transform="translate(-175.03488,68.398525)">
    <g
       id="g1036">
      <path
         style="font-variation-settings:normal;opacity:1;vector-effect:none;fill:#000000;fill-opacity:1;stroke:#000000;stroke-width:0.264583;stroke-linecap:butt;stroke-linejoin:miter;stroke-miterlimit:4;stroke-dasharray:none;stroke-dashoffset:0;stroke-opacity:1;stop-color:#000000;stop-opacity:1"
         d="m 272.70005,154.18554 c -9.63899,-1.02194 -19.33861,0.28948 -28.07171,3.86508 0,0 0,0 0,0 v 0 c -8.91793,3.69219 -16.28026,9.3788 -21.81616,15.84517 v 0 c -1.84604,2.15409 -3.48896,4.3865 -4.89778,6.67902 v 0 c -0.40526,0.65946 -0.79121,1.32347 -1.14974,1.99441 v 0 0 0 c -0.0956,0.17893 -0.18935,0.35838 -0.27988,0.53869 -1e-5,0 -1e-5,0 -1e-5,0 v 0 c 0,0 0,0 0,0 -0.0234,0.0466 -0.0466,0.0933 -0.0694,0.14007 -0.006,0.012 -0.0117,0.024 -0.0174,0.036 -0.002,0.004 -0.004,0.008 -0.006,0.0126 0.003,-0.003 0.007,-0.006 0.0105,-0.009 0.01,-0.009 0.0201,-0.0175 0.0301,-0.0261 0.0393,-0.034 0.0789,-0.0676 0.11853,-0.10123 0,0 0,0 0,0 v 0 c 0,0 0,0 0,0 0.15343,-0.12984 0.30836,-0.25739 0.46452,-0.38421 v 0 h 10e-6 v 0 c 0.58566,-0.47561 1.18284,-0.93479 1.79118,-1.3886 v 0 c 2.11439,-1.57723 4.31955,-3.04646 6.61739,-4.4445 v 0 c 6.84956,-4.16007 14.43085,-7.55556 22.34653,-9.50031 v 0 c 0,0 0,0 0,0 7.63331,-1.90475 15.69078,-2.34336 23.67822,-1.49091 2.74732,0.2932 5.48298,0.73922 8.18076,1.33082 0,0 0,0 0,0 16.89543,3.60994 33.38603,12.95584 47.39349,21.24784 -9.71327,-13.28462 -24.83294,-26.94329 -44.58304,-32.49808 0,0 -10e-6,0 -10e-6,0 -3.18028,-0.87688 -6.44049,-1.49669 -9.74,-1.84652 z"
         id="path1344" />
      <path
         style="font-variation-settings:normal;opacity:1;vector-effect:none;fill:#000000;fill-opacity:1;stroke:#000000;stroke-width:0.264583;stroke-linecap:butt;stroke-linejoin:miter;stroke-miterlimit:4;stroke-dasharray:none;stroke-dashoffset:0;stroke-opacity:1;stop-color:#000000;stop-opacity:1"
         d="m 442.47197,169.6409 c -0.89842,-0.12546 -1.79943,-0.22786 -2.7019,-0.30723 -6.56349,-0.57042 -13.04529,0.006 -19.18608,1.4142 v 0 c -11.21661,2.57705 -21.09796,7.60325 -29.34517,13.57337 v 0 c -2.91783,2.10804 -5.63043,4.33282 -8.11708,6.66181 v 0 c -0.72687,0.68077 -1.43355,1.36926 -2.11496,2.07047 v 0 0 0 c -0.18258,0.18789 -0.36331,0.37658 -0.54128,0.56685 0,0 0,1e-5 0,1e-5 v 0 c 0,0 0,0 0,0 -0.046,0.0492 -0.0919,0.0985 -0.13743,0.14805 -0.0116,0.0127 -0.0233,0.0253 -0.0349,0.038 2e-5,-2e-5 -0.012,0.0132 -0.012,0.0132 -1.2e-4,6e-5 0.0162,-0.008 0.0161,-0.008 0.0155,-0.007 0.0311,-0.0146 0.0466,-0.0219 0.0608,-0.0285 0.12181,-0.0567 0.18289,-0.0849 0,0 0,0 0,0 v 0 c 0,0 10e-6,0 10e-6,0 0.23606,-0.10868 0.4729,-0.2152 0.71093,-0.32109 v 0 h 10e-6 v 0 c 0.88874,-0.39534 1.78398,-0.77636 2.69164,-1.15387 v 0 c 3.10578,-1.29166 6.27907,-2.50334 9.55102,-3.66087 v 0 c 9.20818,-3.2486 19.05649,-6.04098 28.98116,-7.20927 v 0 c 5.43294,-0.64061 10.89779,-0.81925 16.19817,-0.2694 0.72625,0.0744 1.45102,0.1623 2.1735,0.26361 4.82186,0.67613 9.54386,1.95144 13.95035,3.85318 5.95822,2.53733 11.51108,6.33023 16.44788,10.71083 6.79798,6.02889 12.64305,13.42386 17.67999,20.513 -1.98,-8.52427 -5.5358,-17.64065 -11.68744,-25.93615 -4.47774,-6.02724 -10.36044,-11.43287 -17.56215,-15.30587 -5.33753,-2.84381 -11.1774,-4.70882 -17.18987,-5.54844 z"
         id="path1357" />
      <path
         style="font-variation-settings:normal;opacity:1;vector-effect:none;fill:#000000;fill-opacity:1;stroke:#000000;stroke-width:0.264583;stroke-linecap:butt;stroke-linejoin:miter;stroke-miterlimit:4;stroke-dasharray:none;stroke-dashoffset:0;stroke-opacity:1;stop-color:#000000;stop-opacity:1"
         d="m 209.6655,131.53641 c -3.14044,11.57602 -5.47743,23.26742 -7.08621,34.90608 0,0 0,0 0,0 v 0 c -2.28974,16.54255 -3.07814,32.60633 -2.52336,47.84387 v 0 c 0.17204,4.72768 0.47146,9.33413 0.92631,13.8342 v 0 c 0.12533,1.23996 0.262,2.46823 0.41623,3.68712 v 0 0 0 c 0.0402,0.31797 0.0816,0.63502 0.12503,0.95126 0,0 0,0 0,0 v 0 c 0,0 0,1e-5 0,1e-5 0.0111,0.0807 0.0223,0.16144 0.0337,0.24206 0.003,0.0205 0.006,0.0409 0.009,0.0614 0,-1e-5 0.003,0.0211 0.003,0.0211 0,4e-5 0.002,-0.0212 0.002,-0.0211 3.2e-4,-0.003 0.007,-0.0586 0.007,-0.0615 0.009,-0.0809 0.0185,-0.16173 0.0279,-0.24263 0,0 0,0 0,-1e-5 v 0 c 0,0 0,0 0,0 0.037,-0.31677 0.0756,-0.6334 0.11499,-0.95084 v 0 0 0 c 0.15116,-1.21756 0.31334,-2.43531 0.48202,-3.66532 v 0 c 0.61363,-4.47454 1.29545,-8.96516 2.03562,-13.60243 v 0 c 2.39088,-14.97721 5.21021,-30.26586 8.68025,-46.26803 v 0 c 0,0 0,0 0,0 2.43303,-11.20884 5.11871,-22.42683 8.15857,-33.64018 2.52068,-9.29824 5.2452,-18.44683 8.22163,-27.4872 8.05309,-24.432257 17.16053,-45.788449 27.91993,-65.62217 -15.28072,16.374875 -28.36722,37.353373 -38.17156,61.88174 -3.65351,9.1314 -6.77867,18.53599 -9.38216,28.13274 z"
         id="path1383" />
      <path
         style="font-variation-settings:normal;opacity:1;vector-effect:none;fill:#000000;fill-opacity:1;stroke:#000000;stroke-width:0.264583;stroke-linecap:butt;stroke-linejoin:miter;stroke-miterlimit:4;stroke-dasharray:none;stroke-dashoffset:0;stroke-opacity:1;stop-color:#000000;stop-opacity:1"
         d="m 187.04008,76.795284 c -3.12311,9.154128 -5.38604,18.505813 -6.89155,27.852576 0,0 0,1e-5 0,1e-5 -2.40483,14.87708 -2.88609,29.42624 -1.87028,43.09642 0.33036,4.45078 0.82081,8.78115 1.46517,12.98101 0.18605,1.21314 0.3872,2.4169 0.59314,3.60509 0,0 0,0 0,0 0.0577,0.33313 0.11618,0.66204 0.17001,0.99338 0,0 0,0 0,0 0.0154,0.0947 0.0306,0.18883 0.0428,0.28358 0.006,0.047 0.0152,0.0915 0.011,0.1377 0.0173,-0.0431 0.022,-0.0921 0.0292,-0.13702 0.0154,-0.0951 0.0279,-0.19092 0.0401,-0.2863 0,0 0,0 0,0 0.0428,-0.33405 0.0798,-0.66852 0.11762,-1.00354 0,0 0,0 0,0 0.13431,-1.19091 0.27012,-2.41542 0.41038,-3.61914 0.48901,-4.19981 1.04257,-8.45674 1.66692,-12.80305 1.91824,-13.35129 4.41189,-27.12102 7.83567,-41.12682 0,0 0,-1e-5 0,-1e-5 2.15336,-8.785577 4.64168,-17.547031 7.57263,-26.159944 2.82888,-8.312992 6.03664,-16.390184 9.71821,-24.211805 9.09245,-19.317536 20.59546,-35.796436 33.89759,-49.4727649 -16.7052,9.3209859 -32.20089,24.5484539 -43.48497,44.4980579 -4.54547,8.033612 -8.31258,16.54666 -11.32372,25.37257 z"
         id="path1396" />
      <path
         style="font-variation-settings:normal;opacity:1;vector-effect:none;fill:#000000;fill-opacity:1;stroke:#000000;stroke-width:0.264583;stroke-linecap:butt;stroke-linejoin:miter;stroke-miterlimit:4;stroke-dasharray:none;stroke-dashoffset:0;stroke-opacity:1;stop-color:#000000;stop-opacity:1"
         d="m 302.54253,-47.277728 c -1.22648,1.044145 -2.43316,2.106948 -3.62021,3.185977 -8.41303,7.646344 -15.78257,16.025051 -21.94498,24.578665 0,0 0,2e-6 0,2e-6 -2.19304,3.043443 -4.22075,6.092495 -6.07031,9.138227 -0.56043,0.9229357 -1.10383,1.8436332 -1.62769,2.7652872 0,0 0,2.1e-6 0,2.1e-6 -0.15144,0.266465 -0.30127,0.5327415 -0.44857,0.7996537 0,0 0,2.2e-6 0,2.2e-6 -0.0662,0.1202858 -0.13471,0.2409765 -0.19717,0.3636881 0.11234,-0.079665 0.22665,-0.1534046 0.34198,-0.2306434 0,-5e-7 0,-9e-7 0,-1.4e-6 0.13825,-0.092237 0.62307,-0.4140527 0.76131,-0.5062899 10e-6,-4e-7 10e-6,-9e-7 10e-6,-1.3e-6 0.878,-0.5836334 1.76757,-1.1777789 2.65569,-1.7783085 2.93139,-1.9820358 5.91548,-4.0737458 8.91042,-6.2536088 0,0 0,-10e-7 0,-10e-7 8.41016,-6.120931 16.95282,-12.97717 25.34903,-20.046522 1.18938,-1.001247 2.37506,-2.006288 3.55634,-3.012055 3.21812,-2.739969 6.58708,-5.64249 9.74889,-8.352017 0,0 0,-10e-7 0,-10e-7 4.18761,-3.583006 8.11587,-6.960026 12.23579,-10.208309 3.54833,-2.767371 6.82054,-5.286584 10.4975,-7.255127 2.82374,-1.430699 5.59372,-2.726373 8.76261,-2.387464 -2.66169,-1.78091 -6.45984,-2.069491 -9.96821,-1.570331 -4.64055,0.566416 -9.19791,2.135184 -13.55346,4.117617 -5.13487,2.316269 -10.04482,5.215626 -14.75729,8.469441 0,10e-7 0,2e-6 0,2e-6 -3.67953,2.537595 -7.22428,5.281278 -10.63168,8.182116 z"
         id="path1409" />
      <path
         style="font-variation-settings:normal;opacity:1;vector-effect:none;fill:#000000;fill-opacity:1;stroke:#000000;stroke-width:0.264583;stroke-linecap:butt;stroke-linejoin:miter;stroke-miterlimit:4;stroke-dasharray:none;stroke-dashoffset:0;stroke-opacity:1;stop-color:#000000;stop-opacity:1"
         d="m 346.39255,15.689917 c 6e-5,4e-6 -0.39472,-0.0248 -0.39465,-0.02479 -15.76767,-0.997495 -31.46878,-0.05532 -46.12544,4.271841 -8.13666,2.407991 -15.69807,5.828415 -21.62504,10.80899 -1.7256,1.892379 -3.38706,3.758684 -4.98083,5.595635 2.11001,-1.208655 4.2222,-2.445207 6.3349,-3.709043 6.81547,-2.959445 14.04052,-4.195591 21.8336,-5.035627 14.23114,-1.564126 28.54354,-1.057396 43.83126,-0.130016 2.2e-4,1.4e-5 0.37911,0.02368 0.37933,0.02369 26.2035,1.643903 52.50911,4.912243 75.39142,6.587222 -21.20957,-9.194134 -47.07448,-16.62829 -74.64455,-18.387899 z"
         id="path1422" />
      <path
         style="font-variation-settings:normal;opacity:1;vector-effect:none;fill:#000000;fill-opacity:1;stroke:#000000;stroke-width:0.264583;stroke-linecap:butt;stroke-linejoin:miter;stroke-miterlimit:4;stroke-dasharray:none;stroke-dashoffset:0;stroke-opacity:1;stop-color:#000000;stop-opacity:1"
         d="m 491.10676,82.358117 c -4.72198,-8.051475 -10.68261,-15.209525 -17.44939,-21.250318 0,0 -1e-5,-2e-6 -1e-5,-2e-6 v 0 C 464.63112,53.044069 454.56764,47.111707 444.46232,43.12334 v 0 c -3.32665,-1.314045 -6.64034,-2.412383 -9.93152,-3.268812 v 0 c -0.93571,-0.243488 -1.86794,-0.467217 -2.79845,-0.663196 v 0 -1e-6 0 c -0.24648,-0.05191 -0.49276,-0.101898 -0.73897,-0.148688 0,0 0,0 0,0 v 0 c 0,0 0,-10e-7 -10e-6,-10e-7 -0.0634,-0.01204 -0.12673,-0.02387 -0.19013,-0.03534 -0.0162,-0.0029 -0.0323,-0.0058 -0.0485,-0.0087 3e-5,5e-6 -0.0168,-0.003 -0.0168,-0.0029 -1.7e-4,-9.8e-5 0.0149,0.0086 0.0148,0.0085 0.0142,0.0082 0.0284,0.01642 0.0426,0.02467 0.0556,0.03234 0.11104,0.06496 0.16644,0.09775 0,1e-6 0,2e-6 0,2e-6 v 0 c 0,10e-7 0,10e-7 0,2e-6 0.21513,0.127334 0.42881,0.256742 0.64246,0.387559 v 0 2e-6 0 c 0.80677,0.493996 1.60403,1.003497 2.40359,1.525759 v 0 c 2.8135,1.837772 5.57976,3.791294 8.35747,5.863944 v 0 c 8.39965,6.271889 16.59599,13.445552 23.94885,21.612743 v 10e-7 c 0,0 0,2e-6 0,2e-6 5.47717,6.092903 10.43727,12.743424 14.60285,19.825707 2.75883,4.690513 5.15813,9.551093 7.13907,14.562807 3.02522,7.60514 5.11992,15.5454 6.42941,23.49413 1.67055,10.1147 2.0623,20.32987 1.88102,29.92276 3.45751,-8.98874 5.84183,-19.31456 6.07702,-30.46195 0.18037,-8.7473 -1.00688,-17.81443 -3.81765,-26.696925 -1.8641,-5.849819 -4.39942,-11.485731 -7.51903,-16.805 z"
         id="path1435" />
      <path
         style="font-variation-settings:normal;opacity:1;vector-effect:none;fill:#000000;fill-opacity:1;stroke:#000000;stroke-width:0.264583;stroke-linecap:butt;stroke-linejoin:miter;stroke-miterlimit:4;stroke-dasharray:none;stroke-dashoffset:0;stroke-opacity:1;stop-color:#000000;stop-opacity:1"
         d="m 487.26363,-10.581299 c -2.86643,-1.437501 -5.77555,-2.755213 -8.70117,-3.967494 0,0 0,-10e-7 0,-10e-7 v 0 c -7.40587,-3.072982 -14.83438,-5.419835 -21.99379,-7.090072 v 0 c -2.37265,-0.553612 -4.70032,-1.029128 -6.98429,-1.421653 v 0 c -0.64807,-0.111378 -1.29111,-0.215869 -1.93068,-0.312045 v 0 0 0 c -0.1691,-0.02543 -0.33782,-0.05026 -0.50631,-0.07427 0,0 -10e-6,0 -10e-6,0 v 0 c 0,0 0,0 0,0 -0.0434,-0.0062 -0.0867,-0.0123 -0.13006,-0.01834 0.002,2.39e-4 -0.035,-0.0049 -0.0333,-0.0046 -0.0196,-0.0027 0.008,0.0011 -0.0117,-0.0016 -0.003,-0.0013 0.0131,0.0066 0.0105,0.0053 0.002,7.79e-4 0.0284,0.01436 0.0299,0.01514 0.007,0.0036 0.10999,0.05581 0.11707,0.0594 0,0 0,0 0,1e-6 v 0 c 0,0 0,0 0,10e-7 0.15168,0.07709 0.30319,0.154466 0.45528,0.232214 v 0 10e-7 0 c 0.34353,0.175611 1.39232,0.713669 1.73585,0.88928 v 0 c 2.03554,1.042832 4.17642,2.13281 6.31467,3.208954 v 0 c 6.34667,3.194347 13.54621,6.703599 20.40793,10.0792958 v 10e-8 c 0,3e-7 0,6e-7 0,9e-7 2.78368,1.3709959 5.56734,2.7408429 8.34621,4.1332613 5.35045,2.6809512 10.471,5.3401185 15.5168,8.210064 3.76612,2.1429421 7.29162,4.2821824 10.64654,6.6463969 3.16794,2.238413 6.01626,4.516848 8.52003,7.197797 -1.49596,-3.344209 -3.73488,-6.520243 -6.45023,-9.5212737 -2.87344,-3.1825196 -6.18455,-6.0852833 -9.8021,-8.7747553 -4.83088,-3.5932035 -10.06659,-6.737425 -15.55728,-9.490986 z"
         id="path1448" />
      <path
         style="font-variation-settings:normal;opacity:1;vector-effect:none;fill:#000000;fill-opacity:1;stroke:#000000;stroke-width:0.264583;stroke-linecap:butt;stroke-linejoin:miter;stroke-miterlimit:4;stroke-dasharray:none;stroke-dashoffset:0;stroke-opacity:1;stop-color:#000000;stop-opacity:1"
         d="m 346.92623,-8.6091493 c -2.45532,0.9467495 -4.91887,1.8800888 -7.38044,2.8113996 -8.94133,3.3767582 -17.10913,6.36235353 -26.05046,9.7391118 -2.86378,1.0825789 -5.73448,2.1800191 -8.45171,3.2265295 -1.20637,0.4641115 -2.32047,0.9069548 -3.4999,1.3448286 1.23818,-0.086519 2.47423,-0.2188216 3.74005,-0.359455 2.93323,-0.3265603 5.93559,-0.7502573 9.00671,-1.2671481 8.84812,-1.4888151 18.09156,-3.7156737 27.34496,-6.79250681 2.54144,-0.84323894 5.07856,-1.74539079 7.59896,-2.71748669 7.56248,-2.916791 14.79775,-6.396557 21.44749,-10.6554466 4.09216,-2.617491 7.86453,-5.495466 11.10774,-8.795117 2.85426,-2.888559 5.21604,-6.06382 6.53449,-9.514034 -2.23611,2.936983 -5.09822,5.221843 -8.30626,7.390427 -3.65498,2.454714 -7.56932,4.523446 -11.77981,6.555809 -6.8687,3.31065 -13.89899,6.174772 -21.31182,9.0330887 z"
         id="path1461" />
      <path
         style="font-variation-settings:normal;opacity:1;vector-effect:none;fill:#000000;fill-opacity:1;stroke:#000000;stroke-width:0.264583;stroke-linecap:butt;stroke-linejoin:miter;stroke-miterlimit:4;stroke-dasharray:none;stroke-dashoffset:0;stroke-opacity:1;stop-color:#000000;stop-opacity:1"
         d="m 420.9066,-54.39173 c -0.26367,-0.0315 -0.5275,-0.06207 -0.79148,-0.09169 -9.48933,-1.086316 -19.04319,-0.882726 -27.90931,1.805501 -4.93284,1.503281 -9.45859,3.806748 -12.764,7.122868 -0.96509,1.322968 -1.89132,2.622671 -2.77655,3.896606 1.21936,-0.958693 2.43906,-1.935359 3.65811,-2.929412 3.83406,-2.269554 8.16637,-3.323713 12.80545,-3.95866 8.4699,-1.186668 17.1183,-0.598596 26.26333,0.43077 0.25286,0.02906 0.50567,0.05851 0.75846,0.08836 15.89861,1.877061 31.9531,5.395319 45.72513,7.874989 -12.56552,-6.468 -28.11244,-12.22536 -44.96914,-14.239328 z"
         id="path1474" />
      <path
         style="font-variation-settings:normal;opacity:1;vector-effect:none;fill:#000000;fill-opacity:1;stroke:#000000;stroke-width:0.264583;stroke-linecap:butt;stroke-linejoin:miter;stroke-miterlimit:4;stroke-dasharray:none;stroke-dashoffset:0;stroke-opacity:1;stop-color:#000000;stop-opacity:1"
         d="m 401.50336,0.5072598 c -4.20962,1.4650103 -8.48598,2.6947498 -12.78426,3.7251888 0,0 -1e-5,3e-7 -1e-5,3e-7 -5.88504,1.4093595 -11.71215,2.419205 -17.37607,3.1869349 -1.83878,0.2495445 -3.71352,0.4742968 -5.50125,0.6908989 -0.55414,0.067249 -1.10224,0.1314919 -1.6511,0.2122131 0,0 0,3e-7 0,3e-7 -0.17002,0.025001 -0.34088,0.051116 -0.5096,0.085342 0,0 0,3e-7 0,3e-7 -0.0938,0.018849 -0.19422,0.036905 -0.28155,0.077639 0.096,-0.00843 0.18799,0.0089 0.28445,0.02222 0,0 0,2e-7 0,2e-7 0.16733,0.024456 0.33263,0.056521 0.50038,0.089296 0,0 0,4e-7 0,4e-7 0.53758,0.1052781 1.07604,0.2219021 1.62459,0.3329125 1.78633,0.3621005 3.63801,0.6828867 5.53942,0.9262088 5.8003,0.7430187 12.01406,0.8062437 18.39368,-0.024889 0,-2e-7 1e-5,-3e-7 1e-5,-3e-7 4.66196,-0.6064521 9.32546,-1.6875017 13.86937,-3.2711438 3.4287,-1.1949788 6.7461,-2.661177 9.90417,-4.3892436 9.61154,-5.2664693 16.98178,-12.6111706 21.7866,-20.3481156 -7.14556,5.616679 -15.25846,10.8486212 -24.46661,14.9805731 -3.04073,1.3670425 -6.15281,2.59748608 -9.33222,3.7039637 z"
         id="path1487" />
      <path
         style="font-variation-settings:normal;opacity:1;vector-effect:none;fill:#000000;fill-opacity:1;stroke:#000000;stroke-width:0.264583;stroke-linecap:butt;stroke-linejoin:miter;stroke-miterlimit:4;stroke-dasharray:none;stroke-dashoffset:0;stroke-opacity:1;stop-color:#000000;stop-opacity:1"
         d="m 494.03153,38.230196 c -5.76114,-3.097714 -11.66109,-5.854314 -17.61191,-8.31484 0,0 0,-10e-7 0,-10e-7 v 0 C 465.03429,25.202876 453.66568,21.659064 442.70246,19.136452 v 0 c -3.55904,-0.819051 -7.04412,-1.523048 -10.47114,-2.101597 v 0 c -0.9634,-0.162642 -1.91891,-0.314866 -2.87025,-0.453359 v 0 l -10e-6,-1e-6 v 0 c -0.25038,-0.03645 -0.5002,-0.07192 -0.74978,-0.105858 0,0 0,0 0,0 v 0 c 0,0 0,0 -1e-5,0 -0.064,-0.0087 -0.12802,-0.01731 -0.19201,-0.02574 0.003,3.79e-4 -0.0517,-0.0068 -0.0489,-0.0064 10e-6,2e-6 -0.0169,-0.0022 -0.0169,-0.0022 -2e-5,-5e-6 0.0161,0.0055 0.0161,0.0055 0.002,7.66e-4 0.0443,0.01532 0.0466,0.01608 0.061,0.02111 0.1219,0.04236 0.18286,0.06369 0,1e-6 0,1e-6 0,1e-6 v 0 c 0,0 0,10e-7 0,10e-7 0.2376,0.08316 0.47497,0.167405 0.71293,0.252393 v 0 1e-6 0 c 0.90469,0.323115 1.809,0.653994 2.72299,0.992139 v 0 c 3.25806,1.205363 6.53371,2.465147 9.91389,3.797245 v 0 c 10.40955,4.102681 21.12886,8.623583 32.06527,13.785269 0,10e-7 0,10e-7 0,2e-6 5.70438,2.694869 11.38658,5.518702 16.98205,8.524426 7.25549,3.897426 14.23259,8.029404 20.91797,12.535454 13.04404,8.819 23.76319,18.133346 31.98312,29.258479 -5.80926,-12.542495 -15.79921,-23.953718 -28.6867,-33.830236 -6.60988,-5.080154 -13.717,-9.599343 -21.17901,-13.611603 z"
         id="path1500" />
      <path
         style="font-variation-settings:normal;opacity:1;vector-effect:none;fill:#000000;fill-opacity:1;stroke:#000000;stroke-width:0.264583;stroke-linecap:butt;stroke-linejoin:miter;stroke-miterlimit:4;stroke-dasharray:none;stroke-dashoffset:0;stroke-opacity:1;stop-color:#000000;stop-opacity:1"
         d="m 323.72725,-22.140707 c -5.58943,2.883457 -10.93903,6.115657 -16.0013,9.616059 0,10e-7 0,10e-7 0,2e-6 -6.99304,4.828294 -13.29273,10.0560243 -18.80917,15.5584874 -1.76981,1.7652715 -3.44165,3.5392655 -5.00394,5.3510874 -0.47256,0.5480597 -0.93378,1.0970675 -1.37754,1.6552872 -0.21317,0.268325 -0.4364,0.535454 -0.61994,0.824735 0.2525,-0.231619 0.52804,-0.424917 0.80561,-0.6338 0.56781,-0.4254012 1.14354,-0.8388725 1.7301,-1.255134 1.94281,-1.3785789 3.92051,-2.7170146 5.98382,-4.0863635 6.44503,-4.2768012 13.13695,-8.4333383 20.33952,-12.6094776 0,1e-7 0,-1.4e-6 0,-1.4e-6 5.19175,-3.0051935 10.4852,-5.9223335 15.89685,-8.7151355 16.97869,-8.762257 32.53572,-14.975119 48.40722,-19.747863 -16.29612,0.472318 -34.07291,5.128654 -51.35123,14.042117 z"
         id="path1513" />
      <path
         style="font-variation-settings:normal;opacity:1;vector-effect:none;fill:#000000;fill-opacity:1;stroke:#000000;stroke-width:0.264583;stroke-linecap:butt;stroke-linejoin:miter;stroke-miterlimit:4;stroke-dasharray:none;stroke-dashoffset:0;stroke-opacity:1;stop-color:#000000;stop-opacity:1"
         d="m 457.39389,406.77999 c -7.26077,15.16162 -15.54458,29.65235 -25.23312,43.03312 -8.7818,12.12765 -18.58335,23.18607 -29.54305,32.68262 v 0 c -8.82866,7.65224 -18.307,14.21957 -28.31081,19.4573 v 0 10e-6 0 c -7.9025,4.13831 -16.07143,7.43039 -24.38078,9.79133 v 0 c -5.7697,1.63907 -11.57047,2.8301 -17.37799,3.50162 v 0 c -1.67565,0.19386 -3.35186,0.34093 -5.0238,0.44658 v 0 h -10e-6 v 0 c -0.46909,0.0297 -0.93908,0.0545 -1.40785,0.0858 v 0 h -1e-5 v 0 c -0.1347,0.009 -0.26982,0.0181 -0.40424,0.0327 v 0 c -0.0414,0.005 -0.0829,0.01 -0.12404,0.0169 -0.0241,0.004 -0.0485,0.008 -0.0711,0.0185 0.023,-0.007 0.0476,-0.008 0.0718,-0.009 0.0414,-0.002 0.0829,-0.002 0.12447,-0.001 v 0 c 0.1345,0.002 0.26864,0.0101 0.40339,0.018 v 0 h 10e-6 v 0 c 0.46834,0.0275 0.93691,0.0612 1.40782,0.0898 v 0 l 10e-6,1e-5 v 0 c 1.67649,0.10207 3.36801,0.1598 5.07137,0.16667 v 0 c 5.89972,0.0237 11.91288,-0.52065 17.96605,-1.58112 v 0 c 8.72293,-1.52795 17.46514,-4.12554 26.02232,-7.74324 -1e-5,0 0,-10e-6 0,-10e-6 10.83635,-4.5823 21.24925,-10.74079 30.97637,-18.23468 v 0 c 12.07096,-9.30202 22.89912,-20.45303 32.45318,-32.87228 10.53628,-13.6949 19.40699,-28.65785 26.90979,-44.33726 1.10935,-2.31835 2.18745,-4.6495 3.23546,-6.99148 10e-6,-1e-5 10e-6,-1e-5 10e-6,-1e-5 25.7967,-57.70449 34.06919,-119.61962 36.17464,-172.05314 -8.64213,51.59198 -20.5807,112.23465 -45.788,167.72121 -10e-6,0 -10e-6,1e-5 -10e-6,1e-5 -1.02786,2.26478 -2.07809,4.51924 -3.1519,6.76151 z"
         id="path1526" />
      <path
         style="font-variation-settings:normal;opacity:1;vector-effect:none;fill:#000000;fill-opacity:1;stroke:#000000;stroke-width:0.264583;stroke-linecap:butt;stroke-linejoin:miter;stroke-miterlimit:4;stroke-dasharray:none;stroke-dashoffset:0;stroke-opacity:1;stop-color:#000000;stop-opacity:1"
         d="m 341.51381,389.75047 c -0.35125,-0.0495 -0.70225,-0.10113 -1.05298,-0.15485 -7.21669,-1.10471 -14.34058,-3.11637 -21.25113,-5.67884 v 0 c -12.51041,-4.63874 -24.23203,-11.07199 -34.91107,-17.90934 v 0 c -3.73738,-2.39522 -7.3192,-4.82534 -10.7749,-7.32912 v 0 c -1.00352,-0.72711 -1.98964,-1.45508 -2.96177,-2.19728 v 0 0 0 c -0.25956,-0.19817 -0.51742,-0.39677 -0.77359,-0.59753 0,0 0,-10e-6 0,-10e-6 v 0 c 0,0 0,0 -10e-6,0 -0.0661,-0.0518 -0.1321,-0.10377 -0.19784,-0.15598 -0.0168,-0.0133 -0.0335,-0.0266 -0.0502,-0.04 8.6e-4,6.2e-4 -0.0142,-0.0103 -0.0133,-0.01 3.9e-4,6e-4 0.009,0.0132 0.009,0.0138 0.0126,0.0174 0.0252,0.0347 0.0378,0.052 0.0495,0.0679 0.0995,0.13555 0.14958,0.20313 0,0 0,0 0,0 v 0 c 0,0 0,0 0,0 0.19421,0.26184 0.39167,0.52224 0.59137,0.78212 v 0 h 10e-6 v 0 c 0.7477,0.97302 1.52487,1.93558 2.32621,2.8944 v 0 c 2.75864,3.30077 5.78166,6.52765 9.05349,9.67634 v 0 c 9.37458,9.0302 20.70705,17.34795 33.9172,23.33145 v 0 c 7.29409,3.30285 15.10854,5.80149 23.26975,7.09444 0.3972,0.0629 0.79501,0.12271 1.19338,0.17943 8.16204,1.16207 16.48568,1.01213 24.53404,-0.60694 9.57756,-1.94634 18.34514,-5.9219 25.8208,-11.15987 9.83701,-6.90833 17.28129,-15.6677 22.79944,-24.39801 -7.61385,6.92073 -16.43392,13.73027 -26.25862,18.64015 -7.45363,3.7334 -15.59288,6.41997 -23.96433,7.54341 -7.05145,0.96309 -14.30942,0.83928 -21.49235,-0.17318 z"
         id="path1552" />
      <path
         style="font-variation-settings:normal;opacity:1;vector-effect:none;fill:#000000;fill-opacity:1;stroke:#000000;stroke-width:0.264583;stroke-linecap:butt;stroke-linejoin:miter;stroke-miterlimit:4;stroke-dasharray:none;stroke-dashoffset:0;stroke-opacity:1;stop-color:#000000;stop-opacity:1"
         d="m 342.67309,364.95994 c -7.43928,-0.64009 -14.8481,-1.57561 -22.20317,-2.70225 -16.95466,-4.46801 -33.42969,-7.90686 -48.56357,-10.14255 13.76268,6.68528 29.52302,13.197 46.29109,19.13983 7.573,1.82924 15.38803,3.15647 23.33284,3.85142 7.91027,0.69192 15.83506,0.74677 23.65438,0.0901 18.49093,-1.57126 35.0713,-7.28088 47.94113,-16.09857 -14.92263,4.53719 -30.88277,6.72231 -48.36735,6.79853 -7.32696,0.0374 -14.67017,-0.29847 -22.08535,-0.93649 z"
         id="path1565" />
      <path
         style="font-variation-settings:normal;opacity:1;vector-effect:none;fill:#000000;fill-opacity:1;stroke:#000000;stroke-width:0.264583;stroke-linecap:butt;stroke-linejoin:miter;stroke-miterlimit:4;stroke-dasharray:none;stroke-dashoffset:0;stroke-opacity:1;stop-color:#000000;stop-opacity:1"
         d="m 374.76794,263.17185 c -2.1626,-5.08452 -3.92341,-10.23103 -5.26356,-15.47723 0,0 0,0 0,0 v 0 c -1.39729,-5.44704 -2.33307,-10.7585 -2.80326,-15.99207 v 0 c -0.14138,-1.57424 -0.24014,-3.11349 -0.27377,-4.64668 v 0 c -0.009,-0.41902 -0.0136,-0.83469 -0.009,-1.25029 v 0 c 0,0 0,0 0,0 0.001,-0.10853 0.003,-0.21678 0.006,-0.32497 0,0 0,0 0,0 7.8e-4,-0.0278 0.002,-0.0556 0.003,-0.0833 3.6e-4,-0.01 7.3e-4,-0.0194 0.001,-0.029 -0.003,0.009 -0.006,0.0185 -0.009,0.0277 -0.009,0.0265 -0.0173,0.053 -0.0258,0.0795 0,0 0,0 0,0 -0.0331,0.10339 -0.065,0.20732 -0.0961,0.31169 0,0 0,0 0,0 v 0 c -0.11939,0.40009 -0.22833,0.80605 -0.33094,1.21682 v 0 c -0.37522,1.50212 -0.66205,3.05718 -0.88068,4.65921 v 0 c -0.72747,5.33069 -0.67578,11.02515 0.19051,16.87835 v 0 c 0,0 0,1e-5 0,1e-5 0.84383,5.65756 2.44329,11.25819 4.73219,16.65231 5.74878,13.54775 15.15373,24.2578 25.02716,31.3999 -7.47307,-9.59633 -14.87187,-20.7361 -20.2675,-33.42189 z"
         id="path1578" />
      <path
         style="font-variation-settings:normal;opacity:1;vector-effect:none;fill:#000000;fill-opacity:1;stroke:#000000;stroke-width:0.264583;stroke-linecap:butt;stroke-linejoin:miter;stroke-miterlimit:4;stroke-dasharray:none;stroke-dashoffset:0;stroke-opacity:1;stop-color:#000000;stop-opacity:1"
         d="m 326.6351,261.73184 c -2.82985,4.06339 -5.99241,7.81973 -9.45976,11.20851 0,0 0,0 0,0 v 0 c -3.6108,3.52843 -7.42792,6.58803 -11.41371,9.17903 v 0 c -1.22643,0.79712 -2.44851,1.53973 -3.69746,2.21998 v 0 c -0.34544,0.18815 -0.69046,0.37041 -1.03989,0.54429 v 0 c 0,0 0,0 0,0 -0.0918,0.0457 -0.18366,0.0907 -0.27603,0.1345 0,0 0,0 0,0 -0.0238,0.0113 -0.0476,0.0225 -0.0715,0.0336 -0.008,0.004 -0.0168,0.008 -0.0251,0.0115 0.009,-10e-4 0.0184,-0.002 0.0276,-0.003 0.0262,-0.003 0.0524,-0.007 0.0786,-0.0102 0,0 10e-6,0 10e-6,0 0.1017,-0.0137 0.20335,-0.0289 0.30507,-0.0449 0,0 0,0 0,0 v 0 c 0.38771,-0.061 0.77626,-0.13453 1.16613,-0.21626 v 0 c 1.40904,-0.29537 2.8267,-0.69732 4.25176,-1.18621 v 0 c 4.64273,-1.59265 9.2459,-4.07315 13.52872,-7.39751 v 0 c 0,0 0,0 0,0 4.12789,-3.20459 7.8092,-7.09568 10.8829,-11.50748 1.30242,-1.86943 2.48339,-3.81462 3.53692,-5.81795 0,0 0,0 0,0 5.13644,-9.78893 6.95673,-20.20688 6.77464,-29.307 -2.59517,8.68439 -6.00625,18.12453 -11.17063,26.86211 0,0 -10e-6,1e-5 -10e-6,1e-5 -1.06441,1.80486 -2.19766,3.57345 -3.39822,5.29734 z"
         id="path1604" />
      <path
         style="font-variation-settings:normal;opacity:1;vector-effect:none;fill:#000000;fill-opacity:1;stroke:#000000;stroke-width:0.264583;stroke-linecap:butt;stroke-linejoin:miter;stroke-miterlimit:4;stroke-dasharray:none;stroke-dashoffset:0;stroke-opacity:1;stop-color:#000000;stop-opacity:1"
         d="m 429.67238,206.87941 c -0.89461,-0.0394 -1.78969,-0.05 -2.68356,-0.0319 -5.14987,0.11105 -10.12072,1.10771 -14.73285,2.74906 -8.36193,3.0016 -15.37153,7.78987 -20.88385,13.20348 -2.49057,2.78439 -4.81351,5.5657 -6.9505,8.32443 3.23314,-1.31141 6.4952,-2.76246 9.76905,-4.34702 6.8052,-2.74756 13.93468,-5.17568 21.05085,-6.51301 3.97473,-0.76303 7.97157,-1.22574 11.86969,-1.20567 0.6743,0.002 1.34841,0.0184 2.02132,0.0482 3.45565,0.15311 6.89158,0.67008 10.18655,1.58083 4.6306,1.25235 9.18899,3.38045 13.45464,5.97402 5.81808,3.53552 11.30979,8.15517 16.28132,12.67526 -2.04383,-6.45718 -5.45598,-13.1903 -10.89426,-19.10424 -3.99474,-4.33397 -9.06306,-8.04742 -15.0581,-10.47588 -4.2676,-1.70789 -8.81996,-2.67459 -13.4303,-2.8776 z"
         id="path1630" />
      <path
         style="font-variation-settings:normal;opacity:1;vector-effect:none;fill:#000000;fill-opacity:1;stroke:#000000;stroke-width:0.264583;stroke-linecap:butt;stroke-linejoin:miter;stroke-miterlimit:4;stroke-dasharray:none;stroke-dashoffset:0;stroke-opacity:1;stop-color:#000000;stop-opacity:1"
         d="m 274.60004,193.55032 c -8.76296,-0.68811 -17.54901,0.87266 -25.25812,4.65798 0,0 0,0 0,0 -7.41003,3.7258 -13.25597,9.11106 -17.31231,15.0162 -1.58641,2.84652 -3.05174,5.64861 -4.38713,8.39231 2.46214,-1.80145 4.91811,-3.69197 7.36013,-5.66695 5.57916,-3.69598 11.70582,-6.64531 18.04741,-8.36302 0,0 0,0 0,0 6.57118,-1.86785 13.57869,-2.37269 20.5881,-1.81901 2.00594,0.15844 4.01192,0.40406 6.00122,0.73066 0,0 0,0 0,0 14.66068,2.34292 29.77025,9.30373 42.84784,15.18126 -8.93641,-11.46144 -22.8058,-22.93582 -40.506,-27.01163 0,0 -10e-6,0 -10e-6,0 -2.42046,-0.54637 -4.88886,-0.92209 -7.38113,-1.1178 z"
         id="path1643" />
      <path
         style="font-variation-settings:normal;opacity:1;vector-effect:none;fill:#000000;fill-opacity:1;stroke:#000000;stroke-width:0.264583;stroke-linecap:butt;stroke-linejoin:miter;stroke-miterlimit:4;stroke-dasharray:none;stroke-dashoffset:0;stroke-opacity:1;stop-color:#000000;stop-opacity:1"
         d="m 176.80069,222.52636 c 0.0373,0.34304 0.0751,0.68597 0.11323,1.02877 0,0 0,0 0,0 2.17015,16.38523 5.00089,32.30587 8.17307,45.96153 -0.44159,-14.01229 -1.79134,-30.09875 -3.9001,-46.47399 0,0 0,-10e-6 0,-10e-6 -9.6e-4,-0.009 -0.10962,-1.01592 -0.11058,-1.02494 -1.23092,-11.34466 -2.38974,-20.36103 -3.30144,-31.01561 0,0 0,0 0,-10e-6 -0.32283,-3.82273 -0.6258,-7.32116 -0.47738,-10.89611 0.0504,-1.1351 0.11952,-2.22485 0.42254,-3.27448 0,0 0,-1e-5 0,-1e-5 0.1019,-0.35009 0.22462,-0.68912 0.42185,-0.98873 0.14689,-0.2216 0.33723,-0.42345 0.58979,-0.53099 -0.26876,0.0561 -0.5155,0.22382 -0.71447,0.43024 -0.26695,0.27484 -0.47142,0.61028 -0.64237,0.95366 0,0 -1e-5,0 -1e-5,0 -0.51302,1.02441 -0.80124,2.15673 -1.03811,3.28851 -0.75641,3.57302 -0.97432,7.24881 -1.09198,11.08535 0,0 0,0 0,0 -0.32055,10.2201 0.38254,20.67246 1.55596,31.45682 z"
         id="path1695" />
      <path
         style="font-variation-settings:normal;opacity:1;vector-effect:none;fill:#000000;fill-opacity:1;stroke:#000000;stroke-width:0.264583;stroke-linecap:butt;stroke-linejoin:miter;stroke-miterlimit:4;stroke-dasharray:none;stroke-dashoffset:0;stroke-opacity:1;stop-color:#000000;stop-opacity:1"
         d="m 266.64718,16.769042 c 0.62019,-0.880727 1.28553,-1.766748 1.95668,-2.645015 3.32091,-3.230127 6.19341,-6.6889514 8.45092,-10.1641223 -3.73626,1.7950834 -7.63907,4.2948943 -11.37006,7.2654693 -0.86621,0.893952 -1.68834,1.868181 -2.43229,2.923953 -1.42221,2.018308 -2.52189,4.285619 -3.07745,6.706455 -0.89974,4.085693 0.37484,7.989543 2.70022,10.263206 -0.78613,-3.080847 -0.43199,-6.352739 0.80043,-9.179957 0.74976,-1.800228 1.78056,-3.478678 2.97155,-5.169989 z"
         id="path1708" />
      <path
         style="font-variation-settings:normal;opacity:1;vector-effect:none;fill:#000000;fill-opacity:1;stroke:#000000;stroke-width:0.264583;stroke-linecap:butt;stroke-linejoin:miter;stroke-miterlimit:4;stroke-dasharray:none;stroke-dashoffset:0;stroke-opacity:1;stop-color:#000000;stop-opacity:1"
         d="m 246.57344,25.792932 c 0.20841,-1.870038 0.48716,-3.731144 0.83233,-5.579982 1.14308,-3.385068 1.94839,-6.753251 2.39167,-9.975734 -2.09658,2.488808 -4.10338,5.447027 -5.90835,8.691287 -0.75743,1.951994 -1.27434,4.036619 -1.5196,6.181843 -0.71489,6.253149 0.95838,12.198531 4.13629,16.279566 -0.50585,-5.131946 -0.5391,-10.152705 0.0677,-15.59698 z"
         id="path1721" />
      <path
         style="font-variation-settings:normal;opacity:1;vector-effect:none;fill:#000000;fill-opacity:1;stroke:#000000;stroke-width:0.264583;stroke-linecap:butt;stroke-linejoin:miter;stroke-miterlimit:4;stroke-dasharray:none;stroke-dashoffset:0;stroke-opacity:1;stop-color:#000000;stop-opacity:1"
         d="m 518.54684,95.293006 c -1.08482,-1.930667 -2.2153,-3.82665 -3.37559,-5.689532 -5.6253,-9.061158 -12.01658,-17.274936 -18.63785,-24.559187 0,0 0,-2e-6 0,-2e-6 -2.44227,-2.687335 -4.88076,-5.211868 -7.37064,-7.573076 -0.81111,-0.769203 -1.6196,-1.515449 -2.44826,-2.229841 0,0 0,-1e-6 0,-1e-6 -0.2701,-0.232862 -0.54145,-0.461932 -0.81913,-0.681776 0,0 0,-10e-7 0,-10e-7 -0.16611,-0.131568 -0.33345,-0.264169 -0.51281,-0.375297 0.15682,0.141163 0.29513,0.298138 0.436,0.456596 0,10e-7 1e-5,10e-7 1e-5,2e-6 0.23364,0.263233 0.45931,0.532957 0.68494,0.80687 0,10e-7 0,2e-6 0,2e-6 0.69253,0.840844 1.36155,1.699017 2.04094,2.581469 2.09045,2.715584 4.12909,5.494065 6.23889,8.431655 0,10e-7 0,10e-7 10e-6,2e-6 5.70145,7.940268 11.4218,16.372035 16.76088,25.347452 1.09863,1.853052 2.18375,3.719489 3.23867,5.598641 4.29974,7.659248 7.95683,15.282238 10.26581,23.312548 1.28962,4.49816 2.09909,8.9366 1.96593,13.34613 -0.12663,4.23982 -1.19456,8.33139 -3.27819,11.81613 2.67303,-3.06554 4.48422,-7.13939 5.17666,-11.63825 0.71535,-4.64341 0.36323,-9.49187 -0.64583,-14.3175 -1.78749,-8.58621 -5.3066,-16.7777 -9.72044,-24.633034 z"
         id="path1734" />
      <path
         style="font-variation-settings:normal;opacity:1;vector-effect:none;fill:#000000;fill-opacity:1;stroke:#000000;stroke-width:0.264583;stroke-linecap:butt;stroke-linejoin:miter;stroke-miterlimit:4;stroke-dasharray:none;stroke-dashoffset:0;stroke-opacity:1;stop-color:#000000;stop-opacity:1"
         d="m 443.3215,6.9729825 c -3.15564,0.6736182 -6.26826,1.1081332 -9.42501,1.2644364 0,0 0,0 0,0 v -10e-8 c -2.92159,0.1536031 -5.73701,0.089302 -8.49489,-0.2521164 v 0 c -0.81932,-0.1014355 -1.61862,-0.223247 -2.41116,-0.3856672 v 0 c -0.21643,-0.044355 -0.43073,-0.091191 -0.64423,-0.1438871 v 0 c 0,0 0,-1e-7 0,-2e-7 -0.056,-0.013832 -0.11176,-0.028006 -0.16733,-0.042926 0,-1e-7 0,-2e-7 0,-3e-7 -0.0144,-0.00386 -0.0288,-0.00778 -0.0431,-0.011781 -0.005,-0.00143 -0.0103,-0.00289 -0.0155,-0.00437 0.004,0.00348 0.008,0.00693 0.0124,0.010366 0.0115,0.00954 0.0231,0.018998 0.0348,0.028414 0,2e-7 0,5e-7 0,7e-7 0.045,0.036362 0.0906,0.072071 0.13665,0.1074283 0,2e-7 0,4e-7 0,6e-7 v 0 c 0.17587,0.1350613 0.35783,0.2650488 0.5437,0.3918325 v 0 c 0.68033,0.4640512 1.41243,0.8835898 2.1825,1.2670404 v 1e-7 c 2.59822,1.2935068 5.57063,2.1462318 8.74741,2.5082558 v 0 c 0,0 0,0 0,0 3.43961,0.381678 6.96561,0.1818 10.4312,-0.547055 8.12972,-1.7097905 14.96168,-6.088111 19.7155,-10.99945326 C 457.6649,2.6843771 450.5491,5.4301595 443.3215,6.9729825 Z"
         id="path1747" />
      <path
         style="font-variation-settings:normal;opacity:1;vector-effect:none;fill:#000000;fill-opacity:1;stroke:#000000;stroke-width:0.264583;stroke-linecap:butt;stroke-linejoin:miter;stroke-miterlimit:4;stroke-dasharray:none;stroke-dashoffset:0;stroke-opacity:1;stop-color:#000000;stop-opacity:1"
         d="m 223.68628,414.64933 c -6.04854,-13.24668 -10.96281,-26.98188 -15.00328,-40.89351 0,0 0,0 0,-1e-5 v 0 C 201.64835,349.5314 197.35071,325.23659 194.77613,301.9201 v 0 c -0.86037,-7.80013 -1.51765,-15.40037 -1.94093,-22.89903 v 0 c -0.12056,-2.13592 -0.22164,-4.24947 -0.29037,-6.35747 v 0 -10e-6 0 c -0.0182,-0.55784 -0.0341,-1.11397 -0.0457,-1.66992 v 0 -1e-5 0 c -0.003,-0.14277 -0.006,-0.28546 -0.008,-0.42812 0,0 0,0 0,-10e-6 -5.4e-4,-0.0362 -0.001,-0.0724 -0.001,-0.10865 7e-5,0.002 -0.001,-0.0294 -0.001,-0.0276 -2.3e-4,10e-4 -0.005,0.0259 -0.005,0.0271 -0.006,0.0358 -0.0113,0.0716 -0.0169,0.10739 0,0 0,0 0,0 -0.022,0.14104 -0.0433,0.2823 -0.0644,0.42368 v 0 10e-6 0 c -0.082,0.5505 -0.15912,1.10278 -0.23355,1.65707 v 0 1e-5 0 c -0.28117,2.09403 -0.52207,4.20755 -0.73671,6.34558 v 0 c -0.75321,7.50246 -1.17206,15.21398 -1.29087,23.14825 v 0 c -0.35849,23.75621 1.9721,48.98146 8.16558,74.38338 v 0 c 0,0 0,10e-6 0,10e-6 3.55685,14.58917 8.38798,29.04828 14.74203,42.98153 0,0 0.0106,0.0232 0.0106,0.0232 6.69034,14.67112 15.00861,28.51511 25.00898,40.9597 10.84106,13.48665 23.43608,24.93472 37.13316,33.92245 16.28077,10.6728 33.63085,17.55035 50.31557,21.43779 -15.76778,-6.63817 -31.65669,-15.57254 -46.11255,-27.22382 -12.19214,-9.81726 -23.27579,-21.47182 -32.90236,-34.6178 -8.89418,-12.14117 -16.43674,-25.39308 -22.80588,-39.33345 0,-10e-6 -0.0101,-0.0221 -0.0101,-0.0221 z"
         id="path1760" />
      <path
         style="font-variation-settings:normal;opacity:1;vector-effect:none;fill:#000000;fill-opacity:1;stroke:#000000;stroke-width:0.264583;stroke-linecap:butt;stroke-linejoin:miter;stroke-miterlimit:4;stroke-dasharray:none;stroke-dashoffset:0;stroke-opacity:1;stop-color:#000000;stop-opacity:1"
         d="m 535.42423,222.90405 c 0.12134,-0.67289 0.23996,-1.34634 0.35584,-2.02033 2.68944,-15.56583 3.87741,-30.95469 1.82945,-45.88458 -1.09776,-7.98137 -3.0754,-15.52515 -6.92443,-21.84368 -1.52426,-1.82631 -3.02655,-3.60679 -4.5048,-5.33881 1.17569,1.94994 2.37413,3.91638 3.59444,5.89776 2.8565,6.65083 3.78704,13.88795 4.14765,21.62689 0.68999,14.58088 -1.16836,29.19492 -3.84528,44.55276 -0.11586,0.66143 -0.23325,1.3226 -0.35214,1.98355 -4.76741,26.50372 -11.93551,52.31023 -17.86697,74.57974 9.50886,-21.05253 18.67524,-46.42923 23.56624,-73.5533 z"
         id="path1773" />
      <path
         style="font-variation-settings:normal;opacity:1;vector-effect:none;fill:#000000;fill-opacity:1;stroke:#000000;stroke-width:0.264583;stroke-linecap:butt;stroke-linejoin:miter;stroke-miterlimit:4;stroke-dasharray:none;stroke-dashoffset:0;stroke-opacity:1;stop-color:#000000;stop-opacity:1"
         d="m 340.0302,-47.405039 c -2.34537,0.901563 -4.60437,1.962033 -6.76673,3.136036 0,0 0,10e-7 0,10e-7 v 0 c -4.80081,2.59695 -9.07805,5.714986 -12.76153,9.054789 v 0 c -1.23812,1.122094 -2.40358,2.268555 -3.49805,3.417772 v 0 c -0.32016,0.33594 -0.63101,0.671479 -0.94311,1.002008 v 0 1e-6 0 c -0.0872,0.0922 -0.17233,0.183196 -0.26182,0.271079 0,0 0,1e-6 0,1e-6 v 0 c 0,0 0,10e-7 0,10e-7 -0.0254,0.0249 -0.0507,0.04949 -0.0776,0.07212 -0.0128,0.01078 -0.0257,0.0242 -0.0407,0.02737 0.0183,0.0032 0.0349,-0.0041 0.0514,-0.0087 0.0348,-0.0098 0.0687,-0.02209 0.10233,-0.03443 0,0 0,-1e-6 0,-1e-6 v 0 c 0,0 0,0 0,0 0.11941,-0.04398 0.23722,-0.09352 0.35416,-0.142608 v 0 l 10e-6,-1e-6 v 0 c 0.42299,-0.177744 0.84038,-0.364255 1.26314,-0.552486 v 0 c 1.45753,-0.649468 2.90366,-1.310996 4.4074,-1.998067 l 10e-6,-1e-6 c 4.44882,-2.033067 9.04021,-4.161425 13.78719,-6.191495 0,-10e-7 0,-10e-7 0,-10e-7 2.14413,-0.913127 4.3042,-1.80876 6.46774,-2.644371 3.38886,-1.30887 6.73634,-2.451467 10.14442,-3.338587 5.98363,-1.530597 11.64885,-2.216476 17.28526,-1.29994 -4.79257,-3.193801 -11.35567,-4.434965 -18.18648,-3.616628 -3.86073,0.445297 -7.66461,1.438291 -11.32716,2.846175 z"
         id="path1786" />
    </g>
  </g>
</svg>
